[center][b][u][color=Blue][font=Verdana]Time of the Comet - Koha e Kometes (Albanian audio - no subtitles) [AlbExΓäó][/font][/color][/u][/b]

IMDb: [url]http://www.imdb.com/title/tt1092037/[/url]
Wikipedia: [url]http://en.wikipedia.org/wiki/Time_of_the_Comet[/url][/center]

[color=Navy][font=Verdana]File INFO: [/font][/color] 

Format                         : AVI
Format/Info                    : Audio Video Interleave
File size                      : 700 MiB
Duration                       : 1h 41mn
Overall bit rate mode          : Variable
Overall bit rate               : 968 Kbps
Writing application            : VirtualDubMod 1.5.4.1 (build 2178/release)
Writing library                : VirtualDubMod build 2178/release

Video
ID                             : 0
Format                         : MPEG-4 Visual
Format profile                 : Advanced Simple@L5
Format settings, BVOP          : 1
Format settings, QPel          : No
Format settings, GMC           : No warppoints
Format settings, Matrix        : Custom
Codec ID                       : XVID
Codec ID/Hint                  : XviD
Duration                       : 1h 41mn
Bit rate                       : 842 Kbps
Width                          : 560 pixels
Height                         : 320 pixels
Display aspect ratio           : 16:9
Frame rate                     : 25.000 fps
Color space                    : YUV
Chroma subsampling             : 4:2:0
Bit depth                      : 8 bits
Scan type                      : Progressive
Compression mode               : Lossy
Bits/(Pixel*Frame)             : 0.188
Stream size                    : 609 MiB (87%)
Writing library                : XviD 1.2.0.dev47 (UTC 2006-11-01)

Audio
ID                             : 1
Format                         : MPEG Audio
Format version                 : Version 1
Format profile                 : Layer 3
Mode                           : Joint stereo
Mode extension                 : MS Stereo
Codec ID                       : 55
Codec ID/Hint                  : MP3
Duration                       : 1h 41mn
Bit rate mode                  : Variable
Bit rate                       : 113 Kbps
Nominal bit rate               : 128 Kbps
Channel(s)                     : 2 channels
Sampling rate                  : 48.0 KHz
Compression mode               : Lossy
Stream size                    : 81.8 MiB (12%)
Alignment                      : Aligned on interleaves
Interleave, duration           : 24 ms (0.60 video frame)
Interleave, preload duration   : 506 ms
Writing library                : LAME3.97 
Encoding settings              : -m j -V 4 -q 2 -lowpass 17 --abr 128


